HIERARCHY
ROOT Hips
{
	OFFSET -14.64140 90.27770 -84.91600
	CHANNELS 6 Xposition Yposition Zposition Zrotation Xrotation Yrotation
	JOINT Spine
	{
		OFFSET 0.00000 13.20850 -1.60436
		CHANNELS 3 Zrotation Xrotation Yrotation
		JOINT Spine1
		{
			OFFSET 0.00000 8.61716 0.00000
			CHANNELS 3 Zrotation Xrotation Yrotation
			JOINT Spine2
			{
				OFFSET 0.00000 8.61717 0.00000
				CHANNELS 3 Zrotation Xrotation Yrotation
				JOINT Spine3
				{
					OFFSET 0.00000 8.61717 0.00000
					CHANNELS 3 Zrotation Xrotation Yrotation
					JOINT Neck
					{
						OFFSET 0.00000 11.07920 1.10792
						CHANNELS 3 Zrotation Xrotation Yrotation
						JOINT Neck1
						{
							OFFSET 0.00000 7.08032 0.00000
							CHANNELS 3 Zrotation Xrotation Yrotation
							JOINT Head
							{
								OFFSET 0.00000 7.08031 0.00000
								CHANNELS 3 Zrotation Xrotation Yrotation
								End site
								{
									OFFSET 0.00000 0.00000 0.00000
								}
							}
						}
					}
					JOINT RightShoulder
					{
						OFFSET -0.01000 7.91373 5.19711
						CHANNELS 3 Zrotation Xrotation Yrotation
						JOINT RightArm
						{
							OFFSET -18.41580 0.00000 0.00000
							CHANNELS 3 Zrotation Xrotation Yrotation
							JOINT RightForeArm
							{
								OFFSET -29.11090 0.00000 0.00000
								CHANNELS 3 Zrotation Xrotation Yrotation
								JOINT RightHand
								{
									OFFSET -24.65040 0.00000 0.00000
									CHANNELS 3 Zrotation Xrotation Yrotation
									JOINT RightHandThumb1
									{
										OFFSET -5.35114 -0.85590 3.97906
										CHANNELS 3 Zrotation Xrotation Yrotation
										JOINT RightHandThumb2
										{
											OFFSET -4.52789 0.00000 0.00000
											CHANNELS 3 Zrotation Xrotation Yrotation
											JOINT RightHandThumb3
											{
												OFFSET -2.46976 0.00000 0.00000
												CHANNELS 3 Zrotation Xrotation Yrotation
												End site
												{
													OFFSET 0.00000 0.00000 0.00000
												}
											}
										}
									}
									JOINT RightHandIndex1
									{
										OFFSET -14.26970 0.00000 2.88139
										CHANNELS 3 Zrotation Xrotation Yrotation
										JOINT RightHandIndex2
										{
											OFFSET -5.48836 0.00000 0.00000
											CHANNELS 3 Zrotation Xrotation Yrotation
											JOINT RightHandIndex3
											{
												OFFSET -3.01859 0.00000 0.00000
												CHANNELS 3 Zrotation Xrotation Yrotation
												End site
												{
													OFFSET 0.00000 0.00000 0.00000
												}
											}
										}
									}
									JOINT RightHandMiddle1
									{
										OFFSET -14.26970 0.00000 -0.09147
										CHANNELS 3 Zrotation Xrotation Yrotation
										JOINT RightHandMiddle2
										{
											OFFSET -6.17441 0.00000 0.00000
											CHANNELS 3 Zrotation Xrotation Yrotation
											JOINT RightHandMiddle3
											{
												OFFSET -3.56743 0.00000 0.00000
												CHANNELS 3 Zrotation Xrotation Yrotation
												End site
												{
													OFFSET 0.00000 0.00000 0.00000
												}
											}
										}
									}
									JOINT RightHandRing1
									{
										OFFSET -12.69180 0.00000 -3.06433
										CHANNELS 3 Zrotation Xrotation Yrotation
										JOINT RightHandRing2
										{
											OFFSET -5.62556 0.00000 0.00000
											CHANNELS 3 Zrotation Xrotation Yrotation
											JOINT RightHandRing3
											{
												OFFSET -3.56744 0.00000 0.00000
												CHANNELS 3 Zrotation Xrotation Yrotation
												End site
												{
													OFFSET 0.00000 0.00000 0.00000
												}
											}
										}
									}
									JOINT RightHandPinky1
									{
										OFFSET -11.11390 0.00000 -6.03719
										CHANNELS 3 Zrotation Xrotation Yrotation
										JOINT RightHandPinky2
										{
											OFFSET -4.52789 0.00000 0.00000
											CHANNELS 3 Zrotation Xrotation Yrotation
											JOINT RightHandPinky3
											{
												OFFSET -2.46976 0.00000 0.00000
												CHANNELS 3 Zrotation Xrotation Yrotation
												End site
												{
													OFFSET 0.00000 0.00000 0.00000
												}
											}
										}
									}
								}
							}
						}
					}
					JOINT LeftShoulder
					{
						OFFSET 0.01000 7.91373 5.19711
						CHANNELS 3 Zrotation Xrotation Yrotation
						JOINT LeftArm
						{
							OFFSET 18.41580 0.00000 0.00000
							CHANNELS 3 Zrotation Xrotation Yrotation
							JOINT LeftForeArm
							{
								OFFSET 29.11090 0.00000 0.00000
								CHANNELS 3 Zrotation Xrotation Yrotation
								JOINT LeftHand
								{
									OFFSET 24.65040 0.00000 0.00000
									CHANNELS 3 Zrotation Xrotation Yrotation
									JOINT LeftHandThumb1
									{
										OFFSET 5.35114 -0.85590 3.97906
										CHANNELS 3 Zrotation Xrotation Yrotation
										JOINT LeftHandThumb2
										{
											OFFSET 4.52789 0.00000 0.00000
											CHANNELS 3 Zrotation Xrotation Yrotation
											JOINT LeftHandThumb3
											{
												OFFSET 2.46977 0.00000 0.00000
												CHANNELS 3 Zrotation Xrotation Yrotation
												End site
												{
													OFFSET 0.00000 0.00000 0.00000
												}
											}
										}
									}
									JOINT LeftHandIndex1
									{
										OFFSET 14.26970 0.00000 2.88139
										CHANNELS 3 Zrotation Xrotation Yrotation
										JOINT LeftHandIndex2
										{
											OFFSET 5.48836 0.00000 0.00000
											CHANNELS 3 Zrotation Xrotation Yrotation
											JOINT LeftHandIndex3
											{
												OFFSET 3.01859 0.00000 0.00000
												CHANNELS 3 Zrotation Xrotation Yrotation
												End site
												{
													OFFSET 0.00000 0.00000 0.00000
												}
											}
										}
									}
									JOINT LeftHandMiddle1
									{
										OFFSET 14.26970 0.00000 -0.09147
										CHANNELS 3 Zrotation Xrotation Yrotation
										JOINT LeftHandMiddle2
										{
											OFFSET 6.17440 0.00000 0.00000
											CHANNELS 3 Zrotation Xrotation Yrotation
											JOINT LeftHandMiddle3
											{
												OFFSET 3.56744 0.00000 0.00000
												CHANNELS 3 Zrotation Xrotation Yrotation
												End site
												{
													OFFSET 0.00000 0.00000 0.00000
												}
											}
										}
									}
									JOINT LeftHandRing1
									{
										OFFSET 12.69180 0.00000 -3.06433
										CHANNELS 3 Zrotation Xrotation Yrotation
										JOINT LeftHandRing2
										{
											OFFSET 5.62556 0.00000 0.00000
											CHANNELS 3 Zrotation Xrotation Yrotation
											JOINT LeftHandRing3
											{
												OFFSET 3.56744 0.00000 0.00000
												CHANNELS 3 Zrotation Xrotation Yrotation
												End site
												{
													OFFSET 0.00000 0.00000 0.00000
												}
											}
										}
									}
									JOINT LeftHandPinky1
									{
										OFFSET 11.11390 0.00000 -6.03719
										CHANNELS 3 Zrotation Xrotation Yrotation
										JOINT LeftHandPinky2
										{
											OFFSET 4.52789 0.00000 0.00000
											CHANNELS 3 Zrotation Xrotation Yrotation
											JOINT LeftHandPinky3
											{
												OFFSET 2.46976 0.00000 0.00000
												CHANNELS 3 Zrotation Xrotation Yrotation
												End site
												{
													OFFSET 0.00000 0.00000 0.00000
												}
											}
										}
									}
								}
							}
						}
					}
					JOINT pCube4
					{
						OFFSET 0.00000 10.91090 1.10792
						CHANNELS 3 Zrotation Xrotation Yrotation
						End site
						{
							OFFSET 0.00000 0.00000 0.00000
						}
					}
				}
			}
		}
	}
	JOINT RightUpLeg
	{
		OFFSET -9.98441 0.00000 0.00000
		CHANNELS 3 Zrotation Xrotation Yrotation
		JOINT RightLeg
		{
			OFFSET 0.00000 -42.11790 0.00000
			CHANNELS 3 Zrotation Xrotation Yrotation
			JOINT RightFoot
			{
				OFFSET 0.00000 -45.00020 -0.00001
				CHANNELS 3 Zrotation Xrotation Yrotation
				JOINT RightForeFoot
				{
					OFFSET 0.00000 -3.74820 0.00000
					CHANNELS 3 Zrotation Xrotation Yrotation
					JOINT RightToeBase
					{
						OFFSET 0.00000 0.06325 14.43120
						CHANNELS 3 Zrotation Xrotation Yrotation
						End site
						{
							OFFSET 0.00000 0.00000 0.00000
						}
					}
				}
			}
		}
	}
	JOINT LeftUpLeg
	{
		OFFSET 9.98441 0.00000 0.00000
		CHANNELS 3 Zrotation Xrotation Yrotation
		JOINT LeftLeg
		{
			OFFSET 0.00000 -42.11800 0.00000
			CHANNELS 3 Zrotation Xrotation Yrotation
			JOINT LeftFoot
			{
				OFFSET 0.00000 -45.00070 0.00000
				CHANNELS 3 Zrotation Xrotation Yrotation
				JOINT LeftForeFoot
				{
					OFFSET 0.00000 -3.74824 0.00000
					CHANNELS 3 Zrotation Xrotation Yrotation
					JOINT LeftToeBase
					{
						OFFSET 0.00000 0.06325 14.43110
						CHANNELS 3 Zrotation Xrotation Yrotation
						End site
						{
							OFFSET 0.00000 0.00000 0.00000
						}
					}
				}
			}
		}
	}
}
MOTION
Frames: 4
Frame Time: 0.050000
0.0027300454990803963 -0.029916859405334423 0.006662239773087542 -0.03866748288247237 -0.03826697039332684 -0.034447065194010605 -4.166609100236579 5.786429396542589 -0.5562627703295879 -0.6353899045799731 3.222968010574182 0.34742466722167953 -0.6719286496191732 -0.46771847289364 -1.6751740828795265 -1.212428845046879 0.1628262834226596 -0.9925899022671177 -1.8357365966233992 9.686392248606355 4.046429265483346 -0.3429726189534928 -1.1334680320322277 7.068907067459801 -1.4193597559027091 -15.592622328490227 0.6481314458639394 4.152659392477746 -0.3013131967846043 -10.12522275286921 65.60667206804266 7.372153857939718 22.406980887465828 46.62916983586434 18.038072484874608 103.01759035113473 26.520274948315134 0.0457595146823747 -11.043314624915029 4.540326401242417 -0.12048593985439106 -1.6390184514495496 0.006398335135657083 -0.02040076933364751 -56.25359043642278 0.01366334930596721 0.028344162400233016 -56.22487336505951 -38.73137498631575 -0.01705702090977048 0.008228809108224544 -0.014347162599897795 -0.021857133346493758 -0.032957626547327604 0.0056031596420571565 -0.0009429977799990774 0.03188475507839587 -36.694940103663065 0.02680334058205564 -0.04529244067290574 0.03570200953740129 0.030889731760262745 -0.03517253934377816 0.03137084482244926 0.010848501667138041 0.014516399496223548 -19.779472679522605 0.03152411795421346 0.01244323825688321 0.0235319837713222 0.04356595200907204 0.0352177706149308 0.007897128277373463 -0.03298102698956412 -0.048691428900731734 24.093393389788357 -0.048129327496254926 -0.024917524022047312 28.852424813289208 0.012308237025584024 0.015534414500343622 28.8955071208426 0.0006366267828031468 0.007097980803616574 1.789832695482518 0.832773668517816 9.332826110092517 -64.95561098165443 12.8074699293137 -31.456299324886267 -85.15645566540975 12.053779829105169 -120.60551356496431 -32.01541718289092 -5.489304208306055 3.242318131142832 -0.4802513176016788 0.09397348713568404 -8.094110766780473 0.013840338582536164 0.011846888664083002 44.61568989639285 -0.0037190219531610014 -0.03855887972595323 44.57858603919603 12.446844535950154 0.046349126801327786 0.03631630638183002 -0.04607689241804125 -0.038931655749887904 -0.03591736916054919 0.03389474823288706 0.003462461869895809 0.020034785561322516 11.098466079797117 -0.0033262402612275928 0.026271435353751076 0.039701939892320605 0.04733060375615528 -0.00917661992729589 0.02792488518353192 0.0024245437955273887 0.04306528884123131 4.799763870198328 -0.03355669660830524 -0.001683472306201613 -0.0022756434955494968 0.0157830784418259 -0.032089221744278994 0.03785019295481264 0.0036778960125901637 -0.023574637464002415 -5.57690262920769 0.014286112451391478 -0.02927037125649236 -6.742812784262504 0.03314452913036097 0.01616185624548236 -6.745406726681502 -0.04724012416039199 -0.04417162485617551 -0.008668575292649144 0.013168548169607379 -0.001746497151595844 8.040653281989728 3.4879814821270205 -19.21070203033562 0.01694817977900159 10.404893861515404 -0.026936052989963672 -5.6100219959301585 -15.65397067057334 3.2103330954957214 -0.04591968918449611 -0.030355119932535025 -0.02388894950819339 -0.009954783081544946 4.7277168843028035 0.02247475511311344 12.437025369120581 -8.207585550090885 6.9202439816745605 -0.03578483065023155 46.33496518503851 -0.03145991740172047 -4.339231761519591 -14.729197984482402 -3.8623749608533324 0.01940204063511654 -0.004768566368961242 -0.03796048997490587 -0.002220592723436842 -10.717063153275491 0.01821258158229895 
0.02567114171301952 0.01319048641585445 0.04441230020428563 0.015758973705888 0.00991724072704943 0.04118882577236795 -3.9576346854870743 5.562901179393138 -0.6128295053094829 -0.6446904234013571 3.1821104899609787 0.34858081936144003 -0.6994619525407587 -0.5689122659747841 -1.6383625731309728 -1.234655645920685 0.13869763833751733 -0.9805174582161778 -1.8488351195230242 9.775682002492465 4.019410379393276 -0.3263185039995036 -1.1983503279245427 7.257588882534356 -1.4601160778312232 -15.816049423169241 0.6844403662915097 3.8236036532489144 -0.12410923184505751 -10.24909480585223 66.31582520557443 8.294522374555669 21.653375321831803 47.806066316661166 18.7593794897697 102.7290658768807 26.194220511457996 0.07262909938203788 -11.182895472744548 4.577514329767797 -0.14277827328843068 -1.6150327383760485 -0.04904919200336693 0.027453660231663277 -56.25855854584939 0.029504880967333738 0.0012466342021811535 -56.23667449167277 -38.814452347288 0.016339311668209698 -0.005407777935702719 -0.006405177796491891 -0.022963464264085232 -0.033732753569557336 0.02410650220400793 -0.007031785783390134 -0.04405468242977864 -36.72044966641069 -0.013690056072932924 -0.00171776995580769 0.026605666806642274 0.02078175808940941 -0.04485901474829117 0.029551470466085 -0.0271427654478219 0.019680445668309902 -19.79767413985487 -0.024659366869968932 -0.008449001025236073 -0.017351154765092653 -0.03252612489151921 0.018580755013836426 0.030254073229668995 -0.004934290048341895 -0.00690906264754224 24.08118526922299 0.03567249007587247 0.004759975906087889 28.81993836647185 0.024703776026812427 -0.030092090976258885 28.88013713673277 0.03767541294244883 -0.019510318504927543 2.171146418635213 0.9346573733172858 9.432441846382236 -65.75333778695217 14.092705315502013 -30.897178425236447 -87.69819844308675 12.072588329981453 -121.60214132489365 -32.38422624947937 -6.151060873474214 3.8666074876671996 -0.47047823317019655 0.09309442447802316 -8.131233769121835 -0.02153054517105731 -0.028349082105666955 44.51857099573366 -0.015143453010341125 0.007145114496411912 44.5753608170984 12.428265865293964 0.0021401439950189775 0.0028943662049709068 -0.018590926598849748 0.0405306454336321 0.0076057878670454365 0.036763013414752216 0.025765786966881594 0.014488184383085792 11.081150313270053 -0.025543164942525565 -0.015144564261573087 0.028200973169606826 -0.009416928917927673 0.019736092538753976 -0.04236903011428157 0.017622976147746026 0.035313643390401384 4.7506727150697685 0.02013706126471357 -0.04147352060982503 0.048993809496338275 -0.027479542318496825 0.0037914471137228765 -0.024050613085015264 0.0011912751389164962 -0.006554875487243806 -5.578272162403109 -0.03965305460488752 0.023073170293398178 -6.748458499909877 0.04104367120408703 -0.02558253692780733 -6.766996446058026 -0.03560413885540825 -0.012018378399344625 0.03758773030360006 -0.0057360621461204535 -0.00584205906409867 8.05698304988125 3.542033332150498 -19.19151701490202 0.01602996071636769 10.412813910196615 0.050712510596230095 -5.58629341475354 -15.697284224077137 3.2242844079890864 -0.04977708013495273 0.004582102925009598 0.047706277809853724 -0.03985939601941608 4.661677736069882 0.0042543084523667275 12.412884879188491 -8.21103828973835 6.932167137244496 0.020160029168999817 46.376211955564195 -0.048254808924898356 -4.354219542110528 -14.770376070925103 -3.825965462931132 0.0465767207116828 0.011044742336661332 0.025429535721607777 0.005589693507137516 -10.707308999292335 -0.017647053966769122 
-0.007299726701876338 -0.02845703881427449 0.039710192990870696 0.0019446692491299142 0.03318621522906397 0.025307333314542997 -3.6943387913277426 5.189664944757307 -0.6476835965760687 -0.5697571150224818 3.2470118355916466 0.314694429594196 -0.6998772170176191 -0.585731587025906 -1.563070023042644 -1.1936580410106112 0.10681379052009758 -0.970111971632324 -1.7922594951905513 9.989643235179473 3.943107087658897 -0.3044526255767607 -1.2362413669334333 7.311148661756473 -1.3403915091391012 -15.962743782061912 0.6639164222094488 3.1568550360744005 0.014279950886949631 -10.412323137813052 67.407692422687 9.070667821800736 21.209111643157538 48.198621423732874 19.35990264228868 102.35985735616758 25.51965028563041 -0.01695929288074101 -11.112656860368363 4.487923017117057 -0.17508699503875846 -1.5859612790488824 0.010639695641037122 -0.035857144990851485 -56.26614275368304 -0.0032623753409109597 -0.011534092534198619 -56.24998996643336 -38.775682122261315 0.04892258240252502 -0.0016174815786658843 0.04889361111774984 -0.003993000445817493 -0.027997444525505573 -0.027736979637409648 -0.0025828924289855127 0.030732157702726637 -36.70140141209626 0.03395817144873931 0.02393634391385259 -0.006323876110597926 -0.0005817789470542107 0.023857218772783857 -0.006330769481188421 0.04124462323634815 -0.0021904690708733077 -19.75810108975118 0.0410856173187212 -0.002185732477822245 0.016942377232438452 0.030607467694020778 0.03714618291140458 0.008865952841263496 -0.02888088993997434 -0.012991833733765442 24.04223576357059 -0.04552842001722751 0.00329090167053076 28.904667683085172 -0.026342959587708673 -0.02647965606851671 28.826693483743025 -0.009374455794190837 -0.013524412603000854 2.6891838089751645 1.0598102902965485 9.499033718229077 -66.84359264722144 15.232777439198163 -30.440078115701 -89.49812420342326 12.343886776046324 -122.29337924087434 -32.27150260399675 -6.7053740285644 4.574863924484039 -0.457586013912629 0.09468962929386644 -8.145948276548733 -0.005607210048898938 0.014700225674183463 44.58732349470718 0.01992001082082033 -0.005804836375097048 44.60054008721277 12.421712585481872 -0.04377157285873871 0.0131720971106612 -0.022178974160230035 -0.03026481911140764 0.009065468141478447 -0.049507297753452154 0.032240601989125886 -0.049277996399582254 11.1148784588768 -0.047931457631176504 0.010112443729709436 -0.00665083924016989 -0.046230747710176864 0.014416456167301845 0.007698874297889637 0.02065887160257615 -0.03783038305827093 4.722446961340713 -0.04852359244056328 0.04089315844700049 0.022165218198988108 0.009812504454805833 0.047184903936046456 0.030219846199412554 -0.046845426268064816 -0.04525750569914179 -5.631819078285511 -0.01037487937148182 0.008276866197388153 -6.728047996804136 0.015720909051007707 0.018909720475221825 -6.726943147588546 0.0294190648830444 0.014434225317453668 -0.03919444566046656 -0.03067095456596225 0.0253410656846115 8.061798959054514 3.4459080796963564 -19.175586710365717 -0.04721395329589155 10.441087048923196 -0.017455322363176273 -5.578329629423868 -15.6610478450083 3.194505019224906 -0.005349867859653531 0.04090072044981381 -0.022264171929061397 -0.04546324281723824 4.691062746984022 -0.010306201107904067 12.434175763224156 -8.217346275517441 6.9191437684890555 0.01665940525464706 46.4042610706762 -0.03211199713718273 -4.298865880405772 -14.705065190162466 -3.8322336260472536 0.001935334583873206 0.04215760921793419 0.038368584492707365 -0.039177762290517205 -10.714424697951236 0.032780391121206606 
-0.04682536028693454 0.007286276713747023 0.04646220268326942 0.02736934041514181 -0.04080704860459357 -0.03093491265869451 -3.3980023335034026 4.884928391891981 -0.6720792063389136 -0.6228437926599502 3.225144499374392 0.2921501978189523 -0.6980435727402323 -0.7205145148116682 -1.5084214383046364 -1.1382472006530095 0.014109742225831985 -0.9153610372745586 -1.700066338627436 10.221150984293647 3.808524827157969 -0.20615089831481206 -1.2858265671103906 7.159232398937155 -1.208209510330131 -16.14287236488146 0.641040300537009 2.4679311532636055 0.3209512054880863 -10.639428067222351 68.94286445700645 9.284562724536775 20.623677654191162 48.509690600912734 20.09972092155859 101.87152405388363 24.80671642709786 -0.06544259014180583 -10.966403333239988 4.516989582645693 -0.15934332469806106 -1.5634669889678505 -0.027630265914250676 -0.041851771972305614 -56.22283554602962 0.020108020549023685 0.026905132175751252 -56.21972145821548 -38.73803389579041 -0.018969784717520793 -0.019651286220099477 0.005466381647979608 0.046024943508518684 -0.02938248928568788 -0.019223617278001374 0.04140885281397673 -0.008766364584460928 -36.70474149401398 0.04400012968971479 -0.04091629302678469 0.027513239235277515 0.01355577736601104 -0.016884244585020566 0.027040021533999287 0.04279845753477391 0.02356942683247202 -19.778356777772057 0.02893153790607656 -0.01008251099143115 -0.010510932160334425 0.014638904256519555 -0.014769142747277657 0.036865106789750746 -0.02131253339466991 0.04519183805593468 24.042552354617804 0.015759071918218813 -0.03587057783144689 28.883599581207868 0.024022437919206358 -0.008896459705282059 28.850025224419152 0.029206546716630515 0.0026845387362651736 3.268353965698984 1.229305656092658 9.67046927860709 -67.95338533617809 16.222394159873655 -29.82471060452412 -90.43706195487384 13.006323787580207 -123.08249626805357 -32.32476148406619 -7.2787720203302735 5.303747789377502 -0.46317047930320765 0.08165848266002182 -8.16134474621414 0.009502450097445117 0.011504661036389084 44.593963033231184 0.04165004303828058 -0.004033918172465195 44.59744815854375 12.490994383021748 -0.0008660222789236818 0.048848115643219725 -0.04116000693248643 0.04049216259188514 -0.013533152918408016 -0.027832480710640057 -0.02727290594078587 0.04401656372261676 11.116780138598196 -0.029125474991826144 -0.03487550654078995 -0.00021523184518208762 -0.024457224942440986 0.02119041137374267 0.008088708007530072 -0.010536766572918209 0.026923208008096666 4.738660236279684 0.005651417443385989 -0.028554296118055773 -0.04745057677594362 -0.04988702795979466 0.020022376558640143 0.011601141355115085 -0.042712400349992116 -0.03290135291526964 -5.629332822205667 0.0281916635636236 0.03553638153600508 -6.751904819683185 0.011718292749836321 -0.008963208124037619 -6.711175755740486 -0.026980463288587775 0.04055307326280035 0.01391354801858074 0.008986500263146862 0.021090863923626024 8.05378142070293 3.537127107424843 -19.228334674773556 0.036307906370931814 10.443260051790906 -0.02428708276454367 -5.579741906894644 -15.645460338934976 3.1819793861409584 -0.02717019920756922 0.0488310783358994 0.023343922342526774 -0.009232851011520346 4.6715441712233075 0.02213871106238732 12.418315787418587 -8.208533404989563 6.900992860704365 0.00031885467367694955 46.419647886887084 -0.020247097966686126 -4.347017855333067 -14.734457951513827 -3.8409388904234936 -0.016713683572780243 -0.014351702349073778 -0.009135980262314622 0.006385509444286555 -10.758963108807787 0.0329520438119727 
